<svg xmlns="http://www.w3.org/2000/svg" width="37" height="36" fill="none"><path fill="currentColor" d="M22.826 20.269c-.962.466-1.924.932-2.822 1.504-.64.402-1.175.995-1.795 1.525-1.282-1.335-2.714-2.372-4.424-2.965-.256-.085-.684-.085-.834.063-.32.36.065.614.342.805 1.304.89 2.394 1.948 2.65 3.58.407 2.689.385 5.4-.213 8.047-.3 1.292-1.026 2.351-2.394 3.093 1.646.233 2.971-.127 4.168-.869.513-.317.897-.339 1.41 0 1.219.763 2.544 1.06 3.997.911 0-.063 0-.127-.021-.127-1.39-.805-2.052-2.097-2.351-3.6-.45-2.33-.342-4.702-.15-7.053.128-1.61 1.069-2.817 2.372-3.75.171-.126.385-.211.492-.36.128-.169.17-.402.256-.614-.235-.084-.534-.275-.683-.19m-1.71-1.821c1.902 1.016 4.51.02 5.172-1.991-1.86-1.102-4.809.042-5.172 1.99Zm-11.007-2.012c.684 2.012 3.227 2.986 5.215 2.033-.47-1.97-3.185-3.05-5.215-2.034Zm15.281 3.388c1.218 1.694 3.548 1.906 4.873.466-.94-1.694-3.462-1.948-4.873-.466M9.831 14.042c-.534-1.927-2.757-2.838-4.488-1.864.107 1.525 2.672 3.05 4.488 1.864m1.176 5.804c-1.219-1.483-3.72-1.271-4.873.423 1.154 1.44 3.74 1.229 4.873-.423m-.342-9.553c.107-1.97-1.731-3.6-3.612-3.155-.342 1.927 1.987 3.748 3.612 3.155m15.901 3.728c1.603 1.059 3.975.106 4.51-1.821-1.54-1.102-4.19.042-4.51 1.821m-.813-3.706c1.967.38 3.677-1.102 3.634-3.156-1.796-.593-3.997 1.377-3.634 3.156m-6.774 1.842c-1.817.635-2.522 3.008-1.368 4.596 1.859-.805 2.543-3.071 1.367-4.596Zm-3.912-4.638c1.39-1.313.962-3.707-.812-4.617-1.389 1.355-.962 3.79.812 4.617m17.867 8.916c-1.325-1.461-3.697-1.27-4.765.382 1.218 1.44 3.74 1.228 4.765-.382m-29.45 0c1.004 1.589 3.27 1.8 4.744.403-1.004-1.673-3.547-1.864-4.744-.403M22.142 2.88c-1.796 1.038-2.18 3.22-.855 4.639 1.774-.593 2.201-3.452.855-4.639m-2.972 7.562c1.155-1.568.535-3.686-1.26-4.533-1.197 1.207-.492 4.003 1.26 4.533m-2.863 1.101c.085-1.8-1.325-3.007-3.462-3.05-.492 1.61 1.41 3.283 3.462 3.05m-1.347 3.304c-.02-1.695-1.667-2.86-3.697-2.563.021 1.78 2.01 3.135 3.697 2.563m6.498.043c1.538.486 3.825-.89 3.697-2.563-1.902-.424-3.89.953-3.697 2.562Zm-.065-3.644c1.817-.02 3.142-1.461 2.822-3.113-1.796-.042-3.463 1.97-2.822 3.113M3.89 13.957C3.249 12.475 1.197 12.01 0 13.11c.812 1.504 2.672 1.885 3.89.847m2.116-3.812c-.129-1.588-1.753-2.584-3.399-2.012.278 1.715 1.945 2.669 3.399 2.012m25.839 8.853c.897 1.44 2.692 1.694 3.953.572-.662-1.42-2.65-1.737-3.954-.572Zm-31.268.551c1.261 1.144 3.056.89 3.954-.508-1.047-1.208-3.035-.975-3.954.508"/><path fill="currentColor" d="M18.21 21.074c.768 0 1.345-.572 1.324-1.335-.021-.72-.598-1.313-1.303-1.313a1.336 1.336 0 0 0-1.368 1.313c-.022.763.577 1.335 1.346 1.335Zm15.558-12.92c-1.517-.614-3.142.318-3.398 1.97 1.496.678 3.291-.36 3.398-1.97M18.551 3.96c1.282-1.164 1.282-2.922.021-3.96-1.346.826-1.389 2.838-.021 3.96m8.634-.338c-1.432-.19-2.885 1.758-2.287 3.156 1.603.105 2.822-1.589 2.287-3.156m-2.778 18.765c.043 1.567 1.646 2.563 3.334 2.076-.128-1.652-1.795-2.67-3.334-2.076M11.05 6.82c.427.085.555-.085.576-.487.086-1.377-.897-2.542-2.415-2.732-.491 1.355.45 2.965 1.838 3.219Zm.427 15.397c-1.475-.105-2.736.848-2.821 2.224 1.367.466 2.82-.19 3.312-1.482.171-.53.022-.7-.491-.742m21.03-8.238c1.346.995 3.078.614 3.868-.826-1.09-1.144-3.184-.72-3.868.825Z"/></svg>