<svg xmlns="http://www.w3.org/2000/svg" width="12" height="22" fill="none"><path fill="currentColor" d="M8.392 8.244v12.875a.49.49 0 0 1-.488.49H4.245a.487.487 0 0 1-.489-.49V8.244c0-.272.218-.49.49-.49h3.658c.271 0 .488.218.488.49M11.38 1.361c.116.16.124.373.023.54a6.23 6.23 0 0 1-5.33 2.998A6.25 6.25 0 0 1 3.014 4.1 6.2 6.2 0 0 1 .742 1.9a.49.49 0 0 1 .023-.539l.846-1.16a.49.49 0 0 1 .695-.097 6.1 6.1 0 0 0 3.766 1.304c1.37 0 2.693-.462 3.771-1.304a.485.485 0 0 1 .695.097q.42.58.841 1.16"/></svg>